<svg width="43" height="77" viewBox="0 0 43 77" fill="none" xmlns="http://www.w3.org/2000/svg">
<g clip-path="url(#clip0_4_15624)">
<path d="M34.8427 27.0496C34.8427 26.0825 34.8089 25.1154 34.8427 24.1483C34.9248 22.2141 36.3576 20.4073 38.201 19.9028C39.1202 19.6642 41.374 20.4185 42.0921 21.6274C43.1336 23.4004 43.1111 25.275 42.8036 27.2124C42.5651 28.6864 42.0235 30.0948 41.2131 31.3483C40.0474 33.1381 38.5664 34.7006 36.8422 35.9597C35.0327 37.3169 33.1604 38.6031 31.4539 40.0812C29.9796 41.3384 28.9806 43.064 28.6238 44.9698C28.2229 47.1522 29.2999 48.7721 30.9001 50.1406C32.5245 51.5283 34.2664 52.8226 35.6751 54.4103C38.3652 57.4421 40.7623 60.7206 42.253 64.5438C42.6346 65.5402 42.8489 66.593 42.8873 67.6595C42.9586 69.2078 42.8831 70.7594 42.662 72.2934C42.3303 74.4275 40.3453 77.1112 37.4974 76.9967C35.1309 76.9 33.4212 75.5461 32.6839 73.2428C32.1784 71.6729 32.6742 70.2448 32.766 68.7539C32.8561 67.2887 33.0461 65.8252 33.0509 64.3601C33.0606 61.333 32.568 58.3963 30.7858 55.8577C29.6042 54.1798 28.1231 52.9564 25.9948 52.4197C23.741 51.8459 22.6479 53.0112 21.6336 54.5892C20.584 56.2203 19.6052 57.8999 18.533 59.5165C17.0841 61.707 15.3132 63.6186 12.8517 64.6615C11.7248 65.145 10.4836 65.3916 9.26974 65.6205C8.204 65.822 7.09479 65.988 6.0226 65.9171C4.09074 65.7897 2.23616 65.3513 0.870975 63.7234C-0.160961 62.4855 -0.31229 59.7986 0.697107 58.5462C1.88842 57.0762 3.30673 56.1285 5.31908 56.4057C6.70841 56.6024 8.10418 56.828 9.50478 56.8796C10.746 56.9247 11.9937 56.7184 13.2397 56.6781C14.592 56.6281 15.7254 56.0334 16.8088 55.3129C19.2365 53.7011 20.159 51.3269 18.4445 48.5723C17.7587 47.4698 16.7332 46.5333 15.7205 45.6903C13.9593 44.2203 12.0355 42.9502 10.2791 41.4673C8.93323 40.303 7.65706 39.0603 6.45727 37.7456C5.59379 36.8096 4.79606 35.8149 4.06981 34.7686C2.59999 32.6958 1.54391 30.4022 0.618223 28.0457C-0.0144612 26.4339 2.77908e-05 24.7688 2.77908e-05 23.0845C0.00807721 21.795 0.11111 20.5362 0.643981 19.3289C1.31369 17.8203 2.37461 16.721 3.95551 16.3003C5.61691 15.8571 8.18951 16.6985 9.10714 18.4441C9.86218 19.8947 9.99258 21.3083 9.73017 22.9153C9.37116 25.1009 9.10714 27.3333 9.14095 29.5415C9.17637 31.8673 9.43234 34.2157 10.9698 36.2047C12.3511 37.9939 14.2346 38.9448 16.2325 39.7943C18.7133 40.8484 21.3326 40.9064 23.9165 40.6856C25.9429 40.5338 27.8921 39.8426 29.5623 38.6837C30.2063 38.2227 30.8631 37.7618 31.4942 37.2701C33.352 35.8066 34.1602 33.7596 34.5256 31.5208C34.7639 30.0492 34.8476 28.5534 34.9957 27.0673L34.8427 27.0496Z" fill="#0063A6"/>
<path d="M42.9842 11.1049C43.047 12.6797 42.5737 13.9627 41.5192 15.0313C40.4358 16.1273 38.0016 16.1773 36.989 15.0184C36.1003 13.9983 35.2786 12.9215 34.5291 11.7948C33.6694 10.5053 32.718 9.31417 31.3303 8.60336C29.9426 7.89254 28.4148 7.62015 26.8226 8.01343C26.074 8.19879 25.2884 8.23747 24.5462 8.43895C22.1427 9.08368 19.7343 9.72841 17.3629 10.4795C14.2398 11.4692 11.1166 12.5298 7.76964 12.0881C5.76211 11.8302 3.9687 11.0453 2.47795 9.55756C1.12726 8.20524 0.402808 6.58536 0.111419 4.77367C-0.205728 2.8008 1.01456 -0.311634 3.90753 0.0252372C4.50318 0.0945456 5.23729 0.336319 5.60595 0.76184C6.57188 1.89012 7.39131 3.14411 8.25743 4.35459C9.65964 6.30168 11.3661 7.61853 13.9323 7.43479C16.7158 7.23331 19.3592 6.43223 22.001 5.6231C24.704 4.79462 27.3684 3.82914 30.1052 3.15217C32.454 2.57192 34.9042 2.59448 37.2128 3.40039C40.0317 4.38361 41.8815 6.39677 42.7041 9.30128C42.8174 9.60162 42.911 9.90906 42.9842 10.2216C43.0072 10.5156 43.0072 10.8109 42.9842 11.1049Z" fill="#E01A22"/>
<path d="M27.3918 28.3326C27.3242 31.5224 26.3711 33.6887 24.655 35.4504C24.011 36.1193 23 36.7044 22.1033 36.7979C21.3096 36.8785 20.3228 36.3805 19.6289 35.8614C17.9224 34.5817 17.0998 32.741 16.5235 30.6907C16.0051 28.8516 16.3625 27.2575 17.2415 25.7166C18.0689 24.2773 19.3568 23.5262 21.0376 23.2779C23.0387 22.9814 24.6598 23.5391 25.9654 25.0381C26.9491 26.1663 27.4642 27.4816 27.3918 28.3326Z" fill="#0063A6"/>
</g>
<defs>
<clipPath id="clip0_4_15624">
<rect width="43" height="77" fill="white"/>
</clipPath>
</defs>
</svg>
